<svg id="visual" viewBox="0 0 900 450" width="900" height="450" xmlns="http://www.w3.org/2000/svg" xmlns:xlink="http://www.w3.org/1999/xlink" version="1.1"><path d="M0 51L13.7 53.2C27.3 55.3 54.7 59.7 82 59.7C109.3 59.7 136.7 55.3 163.8 55.3C191 55.3 218 59.7 245.2 63.3C272.3 67 299.7 70 327 70.8C354.3 71.7 381.7 70.3 409 74.2C436.3 78 463.7 87 491 83.2C518.3 79.3 545.7 62.7 573 57.3C600.3 52 627.7 58 654.8 64.8C682 71.7 709 79.3 736.2 83.8C763.3 88.3 790.7 89.7 818 84.3C845.3 79 872.7 67 886.3 61L900 55L900 0L886.3 0C872.7 0 845.3 0 818 0C790.7 0 763.3 0 736.2 0C709 0 682 0 654.8 0C627.7 0 600.3 0 573 0C545.7 0 518.3 0 491 0C463.7 0 436.3 0 409 0C381.7 0 354.3 0 327 0C299.7 0 272.3 0 245.2 0C218 0 191 0 163.8 0C136.7 0 109.3 0 82 0C54.7 0 27.3 0 13.7 0L0 0Z" fill="#377ebb"></path><path d="M0 100L13.7 106.8C27.3 113.7 54.7 127.3 82 131.2C109.3 135 136.7 129 163.8 123.7C191 118.3 218 113.7 245.2 109.8C272.3 106 299.7 103 327 103.8C354.3 104.7 381.7 109.3 409 116.8C436.3 124.3 463.7 134.7 491 129.3C518.3 124 545.7 103 573 95.5C600.3 88 627.7 94 654.8 101.5C682 109 709 118 736.2 126.3C763.3 134.7 790.7 142.3 818 136.3C845.3 130.3 872.7 110.7 886.3 100.8L900 91L900 53L886.3 59C872.7 65 845.3 77 818 82.3C790.7 87.7 763.3 86.3 736.2 81.8C709 77.3 682 69.7 654.8 62.8C627.7 56 600.3 50 573 55.3C545.7 60.7 518.3 77.3 491 81.2C463.7 85 436.3 76 409 72.2C381.7 68.3 354.3 69.7 327 68.8C299.7 68 272.3 65 245.2 61.3C218 57.7 191 53.3 163.8 53.3C136.7 53.3 109.3 57.7 82 57.7C54.7 57.7 27.3 53.3 13.7 51.2L0 49Z" fill="#4395d9"></path><path d="M0 208L13.7 209.5C27.3 211 54.7 214 82 214C109.3 214 136.7 211 163.8 214.8C191 218.7 218 229.3 245.2 242.8C272.3 256.3 299.7 272.7 327 280.2C354.3 287.7 381.7 286.3 409 273.7C436.3 261 463.7 237 491 216C518.3 195 545.7 177 573 189C600.3 201 627.7 243 654.8 249.7C682 256.3 709 227.7 736.2 232.8C763.3 238 790.7 277 818 279.3C845.3 281.7 872.7 247.3 886.3 230.2L900 213L900 89L886.3 98.8C872.7 108.7 845.3 128.3 818 134.3C790.7 140.3 763.3 132.7 736.2 124.3C709 116 682 107 654.8 99.5C627.7 92 600.3 86 573 93.5C545.7 101 518.3 122 491 127.3C463.7 132.7 436.3 122.3 409 114.8C381.7 107.3 354.3 102.7 327 101.8C299.7 101 272.3 104 245.2 107.8C218 111.7 191 116.3 163.8 121.7C136.7 127 109.3 133 82 129.2C54.7 125.3 27.3 111.7 13.7 104.8L0 98Z" fill="#4facf7"></path><path d="M0 330L13.7 317.2C27.3 304.3 54.7 278.7 82 275.7C109.3 272.7 136.7 292.3 163.8 300.7C191 309 218 306 245.2 312C272.3 318 299.7 333 327 336.7C354.3 340.3 381.7 332.7 409 325.8C436.3 319 463.7 313 491 298.8C518.3 284.7 545.7 262.3 573 268.3C600.3 274.3 627.7 308.7 654.8 318.3C682 328 709 313 736.2 315.3C763.3 317.7 790.7 337.3 818 331.3C845.3 325.3 872.7 293.7 886.3 277.8L900 262L900 211L886.3 228.2C872.7 245.3 845.3 279.7 818 277.3C790.7 275 763.3 236 736.2 230.8C709 225.7 682 254.3 654.8 247.7C627.7 241 600.3 199 573 187C545.7 175 518.3 193 491 214C463.7 235 436.3 259 409 271.7C381.7 284.3 354.3 285.7 327 278.2C299.7 270.7 272.3 254.3 245.2 240.8C218 227.3 191 216.7 163.8 212.8C136.7 209 109.3 212 82 212C54.7 212 27.3 209 13.7 207.5L0 206Z" fill="#6fb9f8"></path><path d="M0 451L13.7 451C27.3 451 54.7 451 82 451C109.3 451 136.7 451 163.8 451C191 451 218 451 245.2 451C272.3 451 299.7 451 327 451C354.3 451 381.7 451 409 451C436.3 451 463.7 451 491 451C518.3 451 545.7 451 573 451C600.3 451 627.7 451 654.8 451C682 451 709 451 736.2 451C763.3 451 790.7 451 818 451C845.3 451 872.7 451 886.3 451L900 451L900 260L886.3 275.8C872.7 291.7 845.3 323.3 818 329.3C790.7 335.3 763.3 315.7 736.2 313.3C709 311 682 326 654.8 316.3C627.7 306.7 600.3 272.3 573 266.3C545.7 260.3 518.3 282.7 491 296.8C463.7 311 436.3 317 409 323.8C381.7 330.7 354.3 338.3 327 334.7C299.7 331 272.3 316 245.2 310C218 304 191 307 163.8 298.7C136.7 290.3 109.3 270.7 82 273.7C54.7 276.7 27.3 302.3 13.7 315.2L0 328Z" fill="#8bc6f9"></path></svg>